<svg width="162" height="162" viewBox="0 0 162 162" fill="none" xmlns="http://www.w3.org/2000/svg">
<path d="M82.0657 54.3939L91.9065 76.5439C104.8 105.565 91.726 139.544 62.7049 152.437L59.4849 153.868C54.6901 155.998 49.0763 153.838 46.9461 149.043L17.6167 83.0274C9.70977 65.2303 17.7274 44.393 35.5245 36.4861C53.3216 28.5792 74.1588 36.5968 82.0657 54.3939Z" fill="#FB3958" stroke="#D7D5D4" stroke-width="5"/>
<path d="M46.9462 149.044L45.5156 145.824C32.6221 116.803 45.6961 82.8241 74.7173 69.9306L96.8672 60.0898C114.664 52.1829 135.502 60.2005 143.408 77.9977C151.315 95.7948 143.298 116.632 125.501 124.539L59.4851 153.868C54.6903 155.999 49.0764 153.838 46.9462 149.044Z" fill="#FB3958" stroke="#D7D5D4" stroke-width="5"/>
</svg>
